<svg xmlns="http://www.w3.org/2000/svg" viewBox="0 0 32 32" role="img" aria-label="TurkCyber">
  <title>TurkCyber</title>
  <!--
    GENERATED by scripts/generate-icons.py — do not hand-edit.

    The same TC/ letterforms as the header mark (JetBrains Mono Bold), reduced
    from the full <TC/> because five glyphs are not legible in a 16px tab.
    T warm white, C Turkish red, slash neutral grey — never green.
  -->
  <rect width="32" height="32" rx="6" fill="#0c0f10"/>
  <path d="M6.24 21.37 L6.24 12.33 L3.43 12.33 L3.43 10.63 L10.91 10.63 L10.91 12.33 L8.09 12.33 L8.09 21.37 Z" fill="#f1f5f4"/>
  <path d="M16.06 21.52 L15.89 21.52 L15.72 21.51 L15.56 21.50 L15.40 21.48 L15.24 21.45 L15.09 21.42 L14.94 21.39 L14.80 21.35 L14.66 21.30 L14.52 21.25 L14.39 21.19 L14.26 21.13 L14.13 21.06 L14.01 20.99 L13.89 20.92 L13.78 20.83 L13.67 20.75 L13.57 20.66 L13.47 20.57 L13.38 20.47 L13.29 20.36 L13.21 20.26 L13.14 20.14 L13.06 20.03 L13.00 19.91 L12.93 19.78 L12.88 19.65 L12.83 19.52 L12.79 19.39 L12.75 19.25 L12.72 19.11 L12.69 18.96 L12.67 18.81 L12.65 18.66 L12.65 18.50 L12.64 18.34 L12.64 13.66 L12.65 13.50 L12.65 13.34 L12.67 13.18 L12.69 13.03 L12.72 12.89 L12.75 12.74 L12.79 12.60 L12.83 12.47 L12.88 12.34 L12.93 12.21 L13.00 12.09 L13.06 11.97 L13.14 11.85 L13.21 11.74 L13.29 11.63 L13.38 11.53 L13.47 11.43 L13.57 11.34 L13.67 11.25 L13.78 11.16 L13.89 11.08 L14.01 11.01 L14.13 10.94 L14.26 10.87 L14.39 10.81 L14.52 10.75 L14.66 10.70 L14.80 10.65 L14.94 10.61 L15.09 10.58 L15.24 10.55 L15.40 10.52 L15.56 10.50 L15.72 10.49 L15.89 10.48 L16.06 10.48 L16.23 10.48 L16.40 10.49 L16.56 10.50 L16.72 10.52 L16.88 10.55 L17.03 10.58 L17.18 10.61 L17.32 10.65 L17.47 10.70 L17.60 10.75 L17.73 10.81 L17.86 10.87 L17.99 10.94 L18.11 11.01 L18.22 11.08 L18.33 11.16 L18.44 11.25 L18.54 11.34 L18.63 11.43 L18.73 11.53 L18.81 11.63 L18.90 11.74 L18.97 11.85 L19.05 11.97 L19.12 12.09 L19.18 12.21 L19.23 12.34 L19.28 12.47 L19.33 12.60 L19.37 12.74 L19.40 12.89 L19.43 13.03 L19.45 13.18 L19.46 13.34 L19.47 13.50 L19.47 13.66 L17.62 13.66 L17.62 13.53 L17.61 13.41 L17.59 13.30 L17.57 13.19 L17.55 13.09 L17.52 12.99 L17.48 12.89 L17.44 12.80 L17.39 12.72 L17.34 12.64 L17.28 12.56 L17.21 12.50 L17.14 12.43 L17.07 12.37 L16.99 12.32 L16.91 12.28 L16.82 12.23 L16.72 12.20 L16.62 12.17 L16.52 12.14 L16.41 12.12 L16.30 12.11 L16.18 12.10 L16.06 12.10 L15.94 12.10 L15.82 12.11 L15.70 12.12 L15.60 12.14 L15.49 12.17 L15.39 12.20 L15.30 12.23 L15.21 12.28 L15.12 12.32 L15.04 12.37 L14.97 12.43 L14.90 12.50 L14.83 12.56 L14.77 12.64 L14.72 12.72 L14.67 12.80 L14.62 12.89 L14.59 12.98 L14.56 13.08 L14.53 13.18 L14.51 13.29 L14.50 13.40 L14.49 13.52 L14.48 13.64 L14.48 18.34 L14.49 18.46 L14.50 18.58 L14.51 18.69 L14.53 18.80 L14.56 18.91 L14.59 19.01 L14.62 19.10 L14.67 19.19 L14.72 19.27 L14.77 19.35 L14.83 19.43 L14.90 19.50 L14.97 19.56 L15.04 19.62 L15.12 19.67 L15.21 19.72 L15.30 19.76 L15.39 19.80 L15.49 19.83 L15.60 19.86 L15.70 19.88 L15.82 19.89 L15.94 19.90 L16.06 19.90 L16.18 19.90 L16.30 19.89 L16.41 19.88 L16.52 19.86 L16.62 19.83 L16.72 19.80 L16.82 19.76 L16.91 19.72 L16.99 19.67 L17.07 19.62 L17.14 19.56 L17.21 19.50 L17.28 19.43 L17.34 19.35 L17.39 19.27 L17.44 19.19 L17.48 19.10 L17.52 19.01 L17.55 18.91 L17.57 18.80 L17.59 18.69 L17.61 18.58 L17.62 18.46 L17.62 18.34 L19.47 18.34 L19.47 18.50 L19.46 18.65 L19.45 18.80 L19.43 18.95 L19.40 19.10 L19.37 19.24 L19.33 19.38 L19.28 19.51 L19.23 19.64 L19.18 19.77 L19.12 19.90 L19.05 20.02 L18.97 20.14 L18.90 20.25 L18.81 20.36 L18.73 20.46 L18.63 20.56 L18.54 20.66 L18.44 20.75 L18.33 20.83 L18.22 20.91 L18.11 20.99 L17.99 21.06 L17.86 21.13 L17.73 21.19 L17.60 21.25 L17.47 21.30 L17.32 21.35 L17.18 21.39 L17.03 21.42 L16.88 21.45 L16.72 21.48 L16.56 21.50 L16.40 21.51 L16.23 21.52 L16.06 21.52 Z" fill="#e30a17"/>
  <path d="M22.09 21.37 L26.09 10.63 L27.58 10.63 L23.58 21.37 Z" fill="#a8b2ae"/>
</svg>
